<mxfile host="app.diagrams.net" modified="2024-01-30T10:08:17.800Z" agent="Mozilla/5.0 (Windows NT 10.0; Win64; x64; rv:122.0) Gecko/20100101 Firefox/122.0" etag="HEAuNOFCa7rCD8R6HbSc" version="22.1.20" type="device">
  <diagram name="Page-1" id="FnJeY41Yc8yyJb0FR5AK">
    <mxGraphModel dx="1500" dy="797" grid="1" gridSize="10" guides="1" tooltips="1" connect="1" arrows="1" fold="1" page="1" pageScale="1" pageWidth="850" pageHeight="1100" math="0" shadow="0">
      <root>
        <mxCell id="0" />
        <mxCell id="1" parent="0" />
        <mxCell id="db55KGsSZhm5pjsO8Jcu-167" value="" style="rounded=0;whiteSpace=wrap;html=1;" vertex="1" parent="1">
          <mxGeometry x="10" y="70" width="1450" height="950" as="geometry" />
        </mxCell>
        <mxCell id="db55KGsSZhm5pjsO8Jcu-1" value="&lt;h1 align=&quot;center&quot;&gt;Tietokantamalli&lt;br&gt;&lt;/h1&gt;&lt;p align=&quot;left&quot;&gt;&lt;font style=&quot;font-size: 15px;&quot;&gt;Mallinnus Koulun tietokannassta jossa opiskelijat, opettajat , Tuntimerkinn채t, kurssisuoritukset, ja kurssit&lt;/font&gt;&lt;br&gt;&lt;/p&gt;" style="text;html=1;strokeColor=none;fillColor=none;spacing=5;spacingTop=-20;whiteSpace=wrap;overflow=hidden;rounded=0;align=center;" vertex="1" parent="1">
          <mxGeometry x="450" y="80" width="540" height="120" as="geometry" />
        </mxCell>
        <mxCell id="db55KGsSZhm5pjsO8Jcu-89" value="Opiskelija" style="swimlane;fontStyle=0;childLayout=stackLayout;horizontal=1;startSize=30;horizontalStack=0;resizeParent=1;resizeParentMax=0;resizeLast=0;collapsible=1;marginBottom=0;whiteSpace=wrap;html=1;" vertex="1" parent="1">
          <mxGeometry x="300" y="230" width="230" height="180" as="geometry" />
        </mxCell>
        <mxCell id="db55KGsSZhm5pjsO8Jcu-90" value="&lt;div&gt;(PK, int)ID&lt;/div&gt;" style="text;strokeColor=none;fillColor=none;align=left;verticalAlign=middle;spacingLeft=4;spacingRight=4;overflow=hidden;points=[[0,0.5],[1,0.5]];portConstraint=eastwest;rotatable=0;whiteSpace=wrap;html=1;" vertex="1" parent="db55KGsSZhm5pjsO8Jcu-89">
          <mxGeometry y="30" width="230" height="30" as="geometry" />
        </mxCell>
        <mxCell id="db55KGsSZhm5pjsO8Jcu-91" value="&lt;div&gt;(varchar,100)Etunimiet&lt;/div&gt;" style="text;strokeColor=none;fillColor=none;align=left;verticalAlign=middle;spacingLeft=4;spacingRight=4;overflow=hidden;points=[[0,0.5],[1,0.5]];portConstraint=eastwest;rotatable=0;whiteSpace=wrap;html=1;" vertex="1" parent="db55KGsSZhm5pjsO8Jcu-89">
          <mxGeometry y="60" width="230" height="30" as="geometry" />
        </mxCell>
        <mxCell id="db55KGsSZhm5pjsO8Jcu-92" value="(varchar,60)Sukunimi" style="text;strokeColor=none;fillColor=none;align=left;verticalAlign=middle;spacingLeft=4;spacingRight=4;overflow=hidden;points=[[0,0.5],[1,0.5]];portConstraint=eastwest;rotatable=0;whiteSpace=wrap;html=1;" vertex="1" parent="db55KGsSZhm5pjsO8Jcu-89">
          <mxGeometry y="90" width="230" height="30" as="geometry" />
        </mxCell>
        <mxCell id="db55KGsSZhm5pjsO8Jcu-93" value="(Date)Syntym채aika" style="text;strokeColor=none;fillColor=none;align=left;verticalAlign=middle;spacingLeft=4;spacingRight=4;overflow=hidden;points=[[0,0.5],[1,0.5]];portConstraint=eastwest;rotatable=0;whiteSpace=wrap;html=1;" vertex="1" parent="db55KGsSZhm5pjsO8Jcu-89">
          <mxGeometry y="120" width="230" height="30" as="geometry" />
        </mxCell>
        <mxCell id="db55KGsSZhm5pjsO8Jcu-94" value="(varchar,20)Luokka" style="text;strokeColor=none;fillColor=none;align=left;verticalAlign=middle;spacingLeft=4;spacingRight=4;overflow=hidden;points=[[0,0.5],[1,0.5]];portConstraint=eastwest;rotatable=0;whiteSpace=wrap;html=1;" vertex="1" parent="db55KGsSZhm5pjsO8Jcu-89">
          <mxGeometry y="150" width="230" height="30" as="geometry" />
        </mxCell>
        <mxCell id="db55KGsSZhm5pjsO8Jcu-95" value="Kurssisuoritus" style="swimlane;fontStyle=0;childLayout=stackLayout;horizontal=1;startSize=30;horizontalStack=0;resizeParent=1;resizeParentMax=0;resizeLast=0;collapsible=1;marginBottom=0;whiteSpace=wrap;html=1;" vertex="1" parent="1">
          <mxGeometry x="850" y="510" width="230" height="210" as="geometry" />
        </mxCell>
        <mxCell id="db55KGsSZhm5pjsO8Jcu-96" value="(PK,int)Tunnus" style="text;strokeColor=none;fillColor=none;align=left;verticalAlign=middle;spacingLeft=4;spacingRight=4;overflow=hidden;points=[[0,0.5],[1,0.5]];portConstraint=eastwest;rotatable=0;whiteSpace=wrap;html=1;" vertex="1" parent="db55KGsSZhm5pjsO8Jcu-95">
          <mxGeometry y="30" width="230" height="30" as="geometry" />
        </mxCell>
        <mxCell id="db55KGsSZhm5pjsO8Jcu-97" value="(FK,int) Opiskelija" style="text;strokeColor=none;fillColor=none;align=left;verticalAlign=middle;spacingLeft=4;spacingRight=4;overflow=hidden;points=[[0,0.5],[1,0.5]];portConstraint=eastwest;rotatable=0;whiteSpace=wrap;html=1;" vertex="1" parent="db55KGsSZhm5pjsO8Jcu-95">
          <mxGeometry y="60" width="230" height="30" as="geometry" />
        </mxCell>
        <mxCell id="db55KGsSZhm5pjsO8Jcu-98" value="(FK,int)Kurssi" style="text;strokeColor=none;fillColor=none;align=left;verticalAlign=middle;spacingLeft=4;spacingRight=4;overflow=hidden;points=[[0,0.5],[1,0.5]];portConstraint=eastwest;rotatable=0;whiteSpace=wrap;html=1;" vertex="1" parent="db55KGsSZhm5pjsO8Jcu-95">
          <mxGeometry y="90" width="230" height="30" as="geometry" />
        </mxCell>
        <mxCell id="db55KGsSZhm5pjsO8Jcu-99" value="(date) Suoritusp채iv채" style="text;strokeColor=none;fillColor=none;align=left;verticalAlign=middle;spacingLeft=4;spacingRight=4;overflow=hidden;points=[[0,0.5],[1,0.5]];portConstraint=eastwest;rotatable=0;whiteSpace=wrap;html=1;" vertex="1" parent="db55KGsSZhm5pjsO8Jcu-95">
          <mxGeometry y="120" width="230" height="30" as="geometry" />
        </mxCell>
        <mxCell id="db55KGsSZhm5pjsO8Jcu-100" value="(int) Opinto pisteet" style="text;strokeColor=none;fillColor=none;align=left;verticalAlign=middle;spacingLeft=4;spacingRight=4;overflow=hidden;points=[[0,0.5],[1,0.5]];portConstraint=eastwest;rotatable=0;whiteSpace=wrap;html=1;" vertex="1" parent="db55KGsSZhm5pjsO8Jcu-95">
          <mxGeometry y="150" width="230" height="30" as="geometry" />
        </mxCell>
        <mxCell id="db55KGsSZhm5pjsO8Jcu-101" value="(int) Arvosana" style="text;strokeColor=none;fillColor=none;align=left;verticalAlign=middle;spacingLeft=4;spacingRight=4;overflow=hidden;points=[[0,0.5],[1,0.5]];portConstraint=eastwest;rotatable=0;whiteSpace=wrap;html=1;" vertex="1" parent="db55KGsSZhm5pjsO8Jcu-95">
          <mxGeometry y="180" width="230" height="30" as="geometry" />
        </mxCell>
        <mxCell id="db55KGsSZhm5pjsO8Jcu-102" value="Opettaja" style="swimlane;fontStyle=0;childLayout=stackLayout;horizontal=1;startSize=30;horizontalStack=0;resizeParent=1;resizeParentMax=0;resizeLast=0;collapsible=1;marginBottom=0;whiteSpace=wrap;html=1;" vertex="1" parent="1">
          <mxGeometry x="30" y="400" width="230" height="120" as="geometry" />
        </mxCell>
        <mxCell id="db55KGsSZhm5pjsO8Jcu-103" value="&lt;div&gt;(PK, int)ID&lt;/div&gt;" style="text;strokeColor=none;fillColor=none;align=left;verticalAlign=middle;spacingLeft=4;spacingRight=4;overflow=hidden;points=[[0,0.5],[1,0.5]];portConstraint=eastwest;rotatable=0;whiteSpace=wrap;html=1;" vertex="1" parent="db55KGsSZhm5pjsO8Jcu-102">
          <mxGeometry y="30" width="230" height="30" as="geometry" />
        </mxCell>
        <mxCell id="db55KGsSZhm5pjsO8Jcu-104" value="&lt;div&gt;(varchar,100)Etunimiet&lt;/div&gt;" style="text;strokeColor=none;fillColor=none;align=left;verticalAlign=middle;spacingLeft=4;spacingRight=4;overflow=hidden;points=[[0,0.5],[1,0.5]];portConstraint=eastwest;rotatable=0;whiteSpace=wrap;html=1;" vertex="1" parent="db55KGsSZhm5pjsO8Jcu-102">
          <mxGeometry y="60" width="230" height="30" as="geometry" />
        </mxCell>
        <mxCell id="db55KGsSZhm5pjsO8Jcu-105" value="(varchar,60)Sukunimi" style="text;strokeColor=none;fillColor=none;align=left;verticalAlign=middle;spacingLeft=4;spacingRight=4;overflow=hidden;points=[[0,0.5],[1,0.5]];portConstraint=eastwest;rotatable=0;whiteSpace=wrap;html=1;" vertex="1" parent="db55KGsSZhm5pjsO8Jcu-102">
          <mxGeometry y="90" width="230" height="30" as="geometry" />
        </mxCell>
        <mxCell id="db55KGsSZhm5pjsO8Jcu-122" style="edgeStyle=orthogonalEdgeStyle;rounded=0;orthogonalLoop=1;jettySize=auto;html=1;entryX=0;entryY=0.5;entryDx=0;entryDy=0;" edge="1" parent="1" source="db55KGsSZhm5pjsO8Jcu-109" target="db55KGsSZhm5pjsO8Jcu-98">
          <mxGeometry relative="1" as="geometry" />
        </mxCell>
        <mxCell id="db55KGsSZhm5pjsO8Jcu-108" value="Kurssi" style="swimlane;fontStyle=0;childLayout=stackLayout;horizontal=1;startSize=30;horizontalStack=0;resizeParent=1;resizeParentMax=0;resizeLast=0;collapsible=1;marginBottom=0;whiteSpace=wrap;html=1;" vertex="1" parent="1">
          <mxGeometry x="500" y="840" width="230" height="120" as="geometry" />
        </mxCell>
        <mxCell id="db55KGsSZhm5pjsO8Jcu-109" value="&lt;div&gt;(PK, int) Tunnus&lt;br&gt;&lt;/div&gt;" style="text;strokeColor=none;fillColor=none;align=left;verticalAlign=middle;spacingLeft=4;spacingRight=4;overflow=hidden;points=[[0,0.5],[1,0.5]];portConstraint=eastwest;rotatable=0;whiteSpace=wrap;html=1;" vertex="1" parent="db55KGsSZhm5pjsO8Jcu-108">
          <mxGeometry y="30" width="230" height="30" as="geometry" />
        </mxCell>
        <mxCell id="db55KGsSZhm5pjsO8Jcu-111" value="(varchar)Nimi" style="text;strokeColor=none;fillColor=none;align=left;verticalAlign=middle;spacingLeft=4;spacingRight=4;overflow=hidden;points=[[0,0.5],[1,0.5]];portConstraint=eastwest;rotatable=0;whiteSpace=wrap;html=1;" vertex="1" parent="db55KGsSZhm5pjsO8Jcu-108">
          <mxGeometry y="60" width="230" height="30" as="geometry" />
        </mxCell>
        <mxCell id="db55KGsSZhm5pjsO8Jcu-112" value="(int) Opinto pisteet" style="text;strokeColor=none;fillColor=none;align=left;verticalAlign=middle;spacingLeft=4;spacingRight=4;overflow=hidden;points=[[0,0.5],[1,0.5]];portConstraint=eastwest;rotatable=0;whiteSpace=wrap;html=1;" vertex="1" parent="db55KGsSZhm5pjsO8Jcu-108">
          <mxGeometry y="90" width="230" height="30" as="geometry" />
        </mxCell>
        <mxCell id="db55KGsSZhm5pjsO8Jcu-113" value="Tuntimerkint채" style="swimlane;fontStyle=0;childLayout=stackLayout;horizontal=1;startSize=30;horizontalStack=0;resizeParent=1;resizeParentMax=0;resizeLast=0;collapsible=1;marginBottom=0;whiteSpace=wrap;html=1;" vertex="1" parent="1">
          <mxGeometry x="1205" y="350" width="230" height="180" as="geometry" />
        </mxCell>
        <mxCell id="db55KGsSZhm5pjsO8Jcu-114" value="(PK,int)Tunnus" style="text;strokeColor=none;fillColor=none;align=left;verticalAlign=middle;spacingLeft=4;spacingRight=4;overflow=hidden;points=[[0,0.5],[1,0.5]];portConstraint=eastwest;rotatable=0;whiteSpace=wrap;html=1;" vertex="1" parent="db55KGsSZhm5pjsO8Jcu-113">
          <mxGeometry y="30" width="230" height="30" as="geometry" />
        </mxCell>
        <mxCell id="db55KGsSZhm5pjsO8Jcu-115" value="(FK,int) Opiskelija" style="text;strokeColor=none;fillColor=none;align=left;verticalAlign=middle;spacingLeft=4;spacingRight=4;overflow=hidden;points=[[0,0.5],[1,0.5]];portConstraint=eastwest;rotatable=0;whiteSpace=wrap;html=1;" vertex="1" parent="db55KGsSZhm5pjsO8Jcu-113">
          <mxGeometry y="60" width="230" height="30" as="geometry" />
        </mxCell>
        <mxCell id="db55KGsSZhm5pjsO8Jcu-116" value="(FK,int)Kurssi" style="text;strokeColor=none;fillColor=none;align=left;verticalAlign=middle;spacingLeft=4;spacingRight=4;overflow=hidden;points=[[0,0.5],[1,0.5]];portConstraint=eastwest;rotatable=0;whiteSpace=wrap;html=1;" vertex="1" parent="db55KGsSZhm5pjsO8Jcu-113">
          <mxGeometry y="90" width="230" height="30" as="geometry" />
        </mxCell>
        <mxCell id="db55KGsSZhm5pjsO8Jcu-117" value="(date) P채iv채ys" style="text;strokeColor=none;fillColor=none;align=left;verticalAlign=middle;spacingLeft=4;spacingRight=4;overflow=hidden;points=[[0,0.5],[1,0.5]];portConstraint=eastwest;rotatable=0;whiteSpace=wrap;html=1;" vertex="1" parent="db55KGsSZhm5pjsO8Jcu-113">
          <mxGeometry y="120" width="230" height="30" as="geometry" />
        </mxCell>
        <mxCell id="db55KGsSZhm5pjsO8Jcu-118" value="(varchar,20) Merkint채" style="text;strokeColor=none;fillColor=none;align=left;verticalAlign=middle;spacingLeft=4;spacingRight=4;overflow=hidden;points=[[0,0.5],[1,0.5]];portConstraint=eastwest;rotatable=0;whiteSpace=wrap;html=1;" vertex="1" parent="db55KGsSZhm5pjsO8Jcu-113">
          <mxGeometry y="150" width="230" height="30" as="geometry" />
        </mxCell>
        <mxCell id="db55KGsSZhm5pjsO8Jcu-120" style="edgeStyle=orthogonalEdgeStyle;rounded=0;orthogonalLoop=1;jettySize=auto;html=1;entryX=0;entryY=0.5;entryDx=0;entryDy=0;" edge="1" parent="1" source="db55KGsSZhm5pjsO8Jcu-90" target="db55KGsSZhm5pjsO8Jcu-115">
          <mxGeometry relative="1" as="geometry" />
        </mxCell>
        <mxCell id="db55KGsSZhm5pjsO8Jcu-121" style="edgeStyle=orthogonalEdgeStyle;rounded=0;orthogonalLoop=1;jettySize=auto;html=1;entryX=0;entryY=0.5;entryDx=0;entryDy=0;" edge="1" parent="1" source="db55KGsSZhm5pjsO8Jcu-90" target="db55KGsSZhm5pjsO8Jcu-97">
          <mxGeometry relative="1" as="geometry" />
        </mxCell>
        <mxCell id="db55KGsSZhm5pjsO8Jcu-126" value="*" style="text;html=1;strokeColor=none;fillColor=none;align=center;verticalAlign=middle;whiteSpace=wrap;rounded=0;" vertex="1" parent="1">
          <mxGeometry x="1145" y="400" width="60" height="30" as="geometry" />
        </mxCell>
        <mxCell id="db55KGsSZhm5pjsO8Jcu-127" value="1" style="text;html=1;strokeColor=none;fillColor=none;align=center;verticalAlign=middle;whiteSpace=wrap;rounded=0;" vertex="1" parent="1">
          <mxGeometry x="520" y="240" width="60" height="30" as="geometry" />
        </mxCell>
        <mxCell id="db55KGsSZhm5pjsO8Jcu-128" value="1" style="text;html=1;strokeColor=none;fillColor=none;align=center;verticalAlign=middle;whiteSpace=wrap;rounded=0;" vertex="1" parent="1">
          <mxGeometry x="520" y="290" width="60" height="30" as="geometry" />
        </mxCell>
        <mxCell id="db55KGsSZhm5pjsO8Jcu-129" value="*" style="text;html=1;strokeColor=none;fillColor=none;align=center;verticalAlign=middle;whiteSpace=wrap;rounded=0;" vertex="1" parent="1">
          <mxGeometry x="780" y="550" width="60" height="30" as="geometry" />
        </mxCell>
        <mxCell id="db55KGsSZhm5pjsO8Jcu-130" value="*" style="text;html=1;strokeColor=none;fillColor=none;align=center;verticalAlign=middle;whiteSpace=wrap;rounded=0;" vertex="1" parent="1">
          <mxGeometry x="1145" y="470" width="60" height="30" as="geometry" />
        </mxCell>
        <mxCell id="db55KGsSZhm5pjsO8Jcu-131" value="1" style="text;html=1;strokeColor=none;fillColor=none;align=center;verticalAlign=middle;whiteSpace=wrap;rounded=0;" vertex="1" parent="1">
          <mxGeometry x="1005" y="510" width="60" height="30" as="geometry" />
        </mxCell>
        <mxCell id="db55KGsSZhm5pjsO8Jcu-133" value="*" style="text;html=1;strokeColor=none;fillColor=none;align=center;verticalAlign=middle;whiteSpace=wrap;rounded=0;" vertex="1" parent="1">
          <mxGeometry x="780" y="630" width="60" height="30" as="geometry" />
        </mxCell>
        <mxCell id="db55KGsSZhm5pjsO8Jcu-138" value="Kurssinopettajat" style="swimlane;fontStyle=0;childLayout=stackLayout;horizontal=1;startSize=30;horizontalStack=0;resizeParent=1;resizeParentMax=0;resizeLast=0;collapsible=1;marginBottom=0;whiteSpace=wrap;html=1;" vertex="1" parent="1">
          <mxGeometry x="220" y="660" width="230" height="120" as="geometry" />
        </mxCell>
        <mxCell id="db55KGsSZhm5pjsO8Jcu-154" value="(PK,int)Tunnus" style="text;strokeColor=none;fillColor=none;align=left;verticalAlign=middle;spacingLeft=4;spacingRight=4;overflow=hidden;points=[[0,0.5],[1,0.5]];portConstraint=eastwest;rotatable=0;whiteSpace=wrap;html=1;" vertex="1" parent="db55KGsSZhm5pjsO8Jcu-138">
          <mxGeometry y="30" width="230" height="30" as="geometry" />
        </mxCell>
        <mxCell id="db55KGsSZhm5pjsO8Jcu-140" value="(FK,int) Kurssi: Tunnus" style="text;strokeColor=none;fillColor=none;align=left;verticalAlign=middle;spacingLeft=4;spacingRight=4;overflow=hidden;points=[[0,0.5],[1,0.5]];portConstraint=eastwest;rotatable=0;whiteSpace=wrap;html=1;" vertex="1" parent="db55KGsSZhm5pjsO8Jcu-138">
          <mxGeometry y="60" width="230" height="30" as="geometry" />
        </mxCell>
        <mxCell id="db55KGsSZhm5pjsO8Jcu-141" value="(FK,int) Opettaja: ID" style="text;strokeColor=none;fillColor=none;align=left;verticalAlign=middle;spacingLeft=4;spacingRight=4;overflow=hidden;points=[[0,0.5],[1,0.5]];portConstraint=eastwest;rotatable=0;whiteSpace=wrap;html=1;" vertex="1" parent="db55KGsSZhm5pjsO8Jcu-138">
          <mxGeometry y="90" width="230" height="30" as="geometry" />
        </mxCell>
        <mxCell id="db55KGsSZhm5pjsO8Jcu-153" value="1" style="text;html=1;strokeColor=none;fillColor=none;align=center;verticalAlign=middle;whiteSpace=wrap;rounded=0;" vertex="1" parent="1">
          <mxGeometry x="730" y="900" width="60" height="30" as="geometry" />
        </mxCell>
        <mxCell id="db55KGsSZhm5pjsO8Jcu-158" style="edgeStyle=orthogonalEdgeStyle;rounded=0;orthogonalLoop=1;jettySize=auto;html=1;" edge="1" parent="1" source="db55KGsSZhm5pjsO8Jcu-103" target="db55KGsSZhm5pjsO8Jcu-141">
          <mxGeometry relative="1" as="geometry">
            <Array as="points">
              <mxPoint x="300" y="445" />
              <mxPoint x="300" y="605" />
              <mxPoint x="170" y="605" />
              <mxPoint x="170" y="765" />
            </Array>
          </mxGeometry>
        </mxCell>
        <mxCell id="db55KGsSZhm5pjsO8Jcu-159" style="edgeStyle=orthogonalEdgeStyle;rounded=0;orthogonalLoop=1;jettySize=auto;html=1;" edge="1" parent="1" source="db55KGsSZhm5pjsO8Jcu-109" target="db55KGsSZhm5pjsO8Jcu-140">
          <mxGeometry relative="1" as="geometry">
            <Array as="points">
              <mxPoint x="490" y="885" />
              <mxPoint x="490" y="735" />
            </Array>
          </mxGeometry>
        </mxCell>
        <mxCell id="db55KGsSZhm5pjsO8Jcu-160" style="edgeStyle=orthogonalEdgeStyle;rounded=0;orthogonalLoop=1;jettySize=auto;html=1;" edge="1" parent="1" source="db55KGsSZhm5pjsO8Jcu-109" target="db55KGsSZhm5pjsO8Jcu-116">
          <mxGeometry relative="1" as="geometry">
            <Array as="points">
              <mxPoint x="1120" y="885" />
              <mxPoint x="1120" y="455" />
            </Array>
          </mxGeometry>
        </mxCell>
        <mxCell id="db55KGsSZhm5pjsO8Jcu-162" value="*" style="text;html=1;strokeColor=none;fillColor=none;align=center;verticalAlign=middle;whiteSpace=wrap;rounded=0;" vertex="1" parent="1">
          <mxGeometry x="260" y="410" width="60" height="30" as="geometry" />
        </mxCell>
        <mxCell id="db55KGsSZhm5pjsO8Jcu-163" value="*" style="text;html=1;strokeColor=none;fillColor=none;align=center;verticalAlign=middle;whiteSpace=wrap;rounded=0;" vertex="1" parent="1">
          <mxGeometry x="430" y="885" width="60" height="30" as="geometry" />
        </mxCell>
        <mxCell id="db55KGsSZhm5pjsO8Jcu-165" value="*" style="text;html=1;strokeColor=none;fillColor=none;align=center;verticalAlign=middle;whiteSpace=wrap;rounded=0;" vertex="1" parent="1">
          <mxGeometry x="160" y="730" width="60" height="30" as="geometry" />
        </mxCell>
        <mxCell id="db55KGsSZhm5pjsO8Jcu-166" value="*" style="text;html=1;strokeColor=none;fillColor=none;align=center;verticalAlign=middle;whiteSpace=wrap;rounded=0;" vertex="1" parent="1">
          <mxGeometry x="460" y="705" width="60" height="30" as="geometry" />
        </mxCell>
      </root>
    </mxGraphModel>
  </diagram>
</mxfile>
